<mxfile host="app.diagrams.net" agent="Mozilla/5.0 (X11; Linux x86_64) AppleWebKit/537.36 (KHTML, like Gecko) Chrome/135.0.0.0 Safari/537.36" version="26.2.9">
  <diagram id="C5RBs43oDa-KdzZeNtuy" name="Page-1">
    <mxGraphModel dx="1150" dy="737" grid="1" gridSize="10" guides="1" tooltips="1" connect="1" arrows="1" fold="1" page="1" pageScale="1" pageWidth="827" pageHeight="1169" math="0" shadow="0">
      <root>
        <mxCell id="WIyWlLk6GJQsqaUBKTNV-0" />
        <mxCell id="WIyWlLk6GJQsqaUBKTNV-1" parent="WIyWlLk6GJQsqaUBKTNV-0" />
        <mxCell id="Sd-maIk0d4MH4gODgqWR-61" value="" style="edgeStyle=orthogonalEdgeStyle;rounded=0;orthogonalLoop=1;jettySize=auto;html=1;" edge="1" parent="WIyWlLk6GJQsqaUBKTNV-1" source="Sd-maIk0d4MH4gODgqWR-0" target="Sd-maIk0d4MH4gODgqWR-56">
          <mxGeometry relative="1" as="geometry" />
        </mxCell>
        <mxCell id="Sd-maIk0d4MH4gODgqWR-0" value="Start" style="rounded=1;whiteSpace=wrap;arcSize=50;strokeWidth=2;" vertex="1" parent="WIyWlLk6GJQsqaUBKTNV-1">
          <mxGeometry x="48" y="40.5" width="60" height="39" as="geometry" />
        </mxCell>
        <mxCell id="Sd-maIk0d4MH4gODgqWR-108" value="" style="edgeStyle=orthogonalEdgeStyle;rounded=0;orthogonalLoop=1;jettySize=auto;html=1;" edge="1" parent="WIyWlLk6GJQsqaUBKTNV-1" source="Sd-maIk0d4MH4gODgqWR-12" target="Sd-maIk0d4MH4gODgqWR-107">
          <mxGeometry relative="1" as="geometry" />
        </mxCell>
        <mxCell id="Sd-maIk0d4MH4gODgqWR-109" value="yes" style="edgeLabel;html=1;align=center;verticalAlign=middle;resizable=0;points=[];" vertex="1" connectable="0" parent="Sd-maIk0d4MH4gODgqWR-108">
          <mxGeometry x="0.0259" y="1" relative="1" as="geometry">
            <mxPoint as="offset" />
          </mxGeometry>
        </mxCell>
        <mxCell id="Sd-maIk0d4MH4gODgqWR-124" value="" style="edgeStyle=orthogonalEdgeStyle;rounded=0;orthogonalLoop=1;jettySize=auto;html=1;" edge="1" parent="WIyWlLk6GJQsqaUBKTNV-1" source="Sd-maIk0d4MH4gODgqWR-12" target="Sd-maIk0d4MH4gODgqWR-123">
          <mxGeometry relative="1" as="geometry" />
        </mxCell>
        <mxCell id="Sd-maIk0d4MH4gODgqWR-125" value="no" style="edgeLabel;html=1;align=center;verticalAlign=middle;resizable=0;points=[];" vertex="1" connectable="0" parent="Sd-maIk0d4MH4gODgqWR-124">
          <mxGeometry x="-0.0696" y="3" relative="1" as="geometry">
            <mxPoint as="offset" />
          </mxGeometry>
        </mxCell>
        <mxCell id="Sd-maIk0d4MH4gODgqWR-12" value="Approval Required?" style="rhombus;strokeWidth=2;whiteSpace=wrap;" vertex="1" parent="WIyWlLk6GJQsqaUBKTNV-1">
          <mxGeometry x="95" y="532.5" width="191" height="191" as="geometry" />
        </mxCell>
        <mxCell id="Sd-maIk0d4MH4gODgqWR-30" value="" style="curved=1;startArrow=none;endArrow=block;exitX=0.5;exitY=1;entryX=0.5;entryY=0;rounded=0;" edge="1" parent="WIyWlLk6GJQsqaUBKTNV-1" target="Sd-maIk0d4MH4gODgqWR-12">
          <mxGeometry relative="1" as="geometry">
            <Array as="points" />
            <mxPoint x="190.5" y="482.5" as="sourcePoint" />
          </mxGeometry>
        </mxCell>
        <mxCell id="Sd-maIk0d4MH4gODgqWR-63" value="" style="edgeStyle=orthogonalEdgeStyle;rounded=0;orthogonalLoop=1;jettySize=auto;html=1;" edge="1" parent="WIyWlLk6GJQsqaUBKTNV-1" source="Sd-maIk0d4MH4gODgqWR-56" target="Sd-maIk0d4MH4gODgqWR-62">
          <mxGeometry relative="1" as="geometry" />
        </mxCell>
        <mxCell id="Sd-maIk0d4MH4gODgqWR-56" value="Enter Bill Number" style="shape=parallelogram;perimeter=parallelogramPerimeter;whiteSpace=wrap;html=1;fixedSize=1;strokeWidth=2;" vertex="1" parent="WIyWlLk6GJQsqaUBKTNV-1">
          <mxGeometry x="129" y="40" width="191" height="39.5" as="geometry" />
        </mxCell>
        <mxCell id="Sd-maIk0d4MH4gODgqWR-67" value="" style="edgeStyle=orthogonalEdgeStyle;rounded=0;orthogonalLoop=1;jettySize=auto;html=1;" edge="1" parent="WIyWlLk6GJQsqaUBKTNV-1" source="Sd-maIk0d4MH4gODgqWR-62" target="Sd-maIk0d4MH4gODgqWR-66">
          <mxGeometry relative="1" as="geometry" />
        </mxCell>
        <mxCell id="Sd-maIk0d4MH4gODgqWR-62" value="Select Supplier" style="shape=parallelogram;perimeter=parallelogramPerimeter;whiteSpace=wrap;html=1;fixedSize=1;strokeWidth=2;" vertex="1" parent="WIyWlLk6GJQsqaUBKTNV-1">
          <mxGeometry x="340" y="39.5" width="191" height="39.5" as="geometry" />
        </mxCell>
        <mxCell id="Sd-maIk0d4MH4gODgqWR-69" value="" style="edgeStyle=orthogonalEdgeStyle;rounded=0;orthogonalLoop=1;jettySize=auto;html=1;" edge="1" parent="WIyWlLk6GJQsqaUBKTNV-1" source="Sd-maIk0d4MH4gODgqWR-66" target="Sd-maIk0d4MH4gODgqWR-68">
          <mxGeometry relative="1" as="geometry" />
        </mxCell>
        <mxCell id="Sd-maIk0d4MH4gODgqWR-66" value="Select Purchase Order" style="shape=parallelogram;perimeter=parallelogramPerimeter;whiteSpace=wrap;html=1;fixedSize=1;strokeWidth=2;" vertex="1" parent="WIyWlLk6GJQsqaUBKTNV-1">
          <mxGeometry x="560" y="39.5" width="191" height="39.5" as="geometry" />
        </mxCell>
        <mxCell id="Sd-maIk0d4MH4gODgqWR-71" value="" style="edgeStyle=orthogonalEdgeStyle;rounded=0;orthogonalLoop=1;jettySize=auto;html=1;" edge="1" parent="WIyWlLk6GJQsqaUBKTNV-1" source="Sd-maIk0d4MH4gODgqWR-68" target="Sd-maIk0d4MH4gODgqWR-70">
          <mxGeometry relative="1" as="geometry" />
        </mxCell>
        <mxCell id="Sd-maIk0d4MH4gODgqWR-68" value="Enter Function" style="shape=parallelogram;perimeter=parallelogramPerimeter;whiteSpace=wrap;html=1;fixedSize=1;strokeWidth=2;" vertex="1" parent="WIyWlLk6GJQsqaUBKTNV-1">
          <mxGeometry x="560" y="120" width="191" height="39.5" as="geometry" />
        </mxCell>
        <mxCell id="Sd-maIk0d4MH4gODgqWR-73" value="" style="edgeStyle=orthogonalEdgeStyle;rounded=0;orthogonalLoop=1;jettySize=auto;html=1;" edge="1" parent="WIyWlLk6GJQsqaUBKTNV-1" source="Sd-maIk0d4MH4gODgqWR-70" target="Sd-maIk0d4MH4gODgqWR-72">
          <mxGeometry relative="1" as="geometry" />
        </mxCell>
        <mxCell id="Sd-maIk0d4MH4gODgqWR-70" value="Enter Narration" style="shape=parallelogram;perimeter=parallelogramPerimeter;whiteSpace=wrap;html=1;fixedSize=1;strokeWidth=2;" vertex="1" parent="WIyWlLk6GJQsqaUBKTNV-1">
          <mxGeometry x="340" y="120" width="191" height="39.5" as="geometry" />
        </mxCell>
        <mxCell id="Sd-maIk0d4MH4gODgqWR-75" value="" style="edgeStyle=orthogonalEdgeStyle;rounded=0;orthogonalLoop=1;jettySize=auto;html=1;" edge="1" parent="WIyWlLk6GJQsqaUBKTNV-1" source="Sd-maIk0d4MH4gODgqWR-72" target="Sd-maIk0d4MH4gODgqWR-74">
          <mxGeometry relative="1" as="geometry" />
        </mxCell>
        <mxCell id="Sd-maIk0d4MH4gODgqWR-72" value="Enter Party Bill Amount " style="shape=parallelogram;perimeter=parallelogramPerimeter;whiteSpace=wrap;html=1;fixedSize=1;strokeWidth=2;" vertex="1" parent="WIyWlLk6GJQsqaUBKTNV-1">
          <mxGeometry x="120" y="120" width="191" height="39.5" as="geometry" />
        </mxCell>
        <mxCell id="Sd-maIk0d4MH4gODgqWR-77" value="" style="edgeStyle=orthogonalEdgeStyle;rounded=0;orthogonalLoop=1;jettySize=auto;html=1;" edge="1" parent="WIyWlLk6GJQsqaUBKTNV-1" source="Sd-maIk0d4MH4gODgqWR-74" target="Sd-maIk0d4MH4gODgqWR-76">
          <mxGeometry relative="1" as="geometry" />
        </mxCell>
        <mxCell id="Sd-maIk0d4MH4gODgqWR-74" value="Enter Party Bill Date" style="shape=parallelogram;perimeter=parallelogramPerimeter;whiteSpace=wrap;html=1;fixedSize=1;strokeWidth=2;" vertex="1" parent="WIyWlLk6GJQsqaUBKTNV-1">
          <mxGeometry x="120" y="200" width="191" height="39.5" as="geometry" />
        </mxCell>
        <mxCell id="Sd-maIk0d4MH4gODgqWR-79" value="" style="edgeStyle=orthogonalEdgeStyle;rounded=0;orthogonalLoop=1;jettySize=auto;html=1;" edge="1" parent="WIyWlLk6GJQsqaUBKTNV-1" source="Sd-maIk0d4MH4gODgqWR-76" target="Sd-maIk0d4MH4gODgqWR-78">
          <mxGeometry relative="1" as="geometry" />
        </mxCell>
        <mxCell id="Sd-maIk0d4MH4gODgqWR-76" value="Enter Party Bill Amount" style="shape=parallelogram;perimeter=parallelogramPerimeter;whiteSpace=wrap;html=1;fixedSize=1;strokeWidth=2;" vertex="1" parent="WIyWlLk6GJQsqaUBKTNV-1">
          <mxGeometry x="334" y="200" width="191" height="39.5" as="geometry" />
        </mxCell>
        <mxCell id="Sd-maIk0d4MH4gODgqWR-81" value="" style="edgeStyle=orthogonalEdgeStyle;rounded=0;orthogonalLoop=1;jettySize=auto;html=1;" edge="1" parent="WIyWlLk6GJQsqaUBKTNV-1" source="Sd-maIk0d4MH4gODgqWR-78" target="Sd-maIk0d4MH4gODgqWR-80">
          <mxGeometry relative="1" as="geometry" />
        </mxCell>
        <mxCell id="Sd-maIk0d4MH4gODgqWR-78" value="Select Bill Type" style="shape=parallelogram;perimeter=parallelogramPerimeter;whiteSpace=wrap;html=1;fixedSize=1;strokeWidth=2;" vertex="1" parent="WIyWlLk6GJQsqaUBKTNV-1">
          <mxGeometry x="550" y="200" width="191" height="39.5" as="geometry" />
        </mxCell>
        <mxCell id="Sd-maIk0d4MH4gODgqWR-84" value="" style="edgeStyle=orthogonalEdgeStyle;rounded=0;orthogonalLoop=1;jettySize=auto;html=1;" edge="1" parent="WIyWlLk6GJQsqaUBKTNV-1" source="Sd-maIk0d4MH4gODgqWR-80" target="Sd-maIk0d4MH4gODgqWR-83">
          <mxGeometry relative="1" as="geometry" />
        </mxCell>
        <mxCell id="Sd-maIk0d4MH4gODgqWR-80" value="Select Account Code Template" style="shape=parallelogram;perimeter=parallelogramPerimeter;whiteSpace=wrap;html=1;fixedSize=1;strokeWidth=2;" vertex="1" parent="WIyWlLk6GJQsqaUBKTNV-1">
          <mxGeometry x="550" y="280.5" width="191" height="39.5" as="geometry" />
        </mxCell>
        <mxCell id="Sd-maIk0d4MH4gODgqWR-86" value="" style="edgeStyle=orthogonalEdgeStyle;rounded=0;orthogonalLoop=1;jettySize=auto;html=1;" edge="1" parent="WIyWlLk6GJQsqaUBKTNV-1" source="Sd-maIk0d4MH4gODgqWR-83" target="Sd-maIk0d4MH4gODgqWR-85">
          <mxGeometry relative="1" as="geometry" />
        </mxCell>
        <mxCell id="Sd-maIk0d4MH4gODgqWR-83" value="Enter Debit Account Code" style="shape=parallelogram;perimeter=parallelogramPerimeter;whiteSpace=wrap;html=1;fixedSize=1;strokeWidth=2;" vertex="1" parent="WIyWlLk6GJQsqaUBKTNV-1">
          <mxGeometry x="324" y="279" width="169" height="42.5" as="geometry" />
        </mxCell>
        <mxCell id="Sd-maIk0d4MH4gODgqWR-88" value="" style="edgeStyle=orthogonalEdgeStyle;rounded=0;orthogonalLoop=1;jettySize=auto;html=1;" edge="1" parent="WIyWlLk6GJQsqaUBKTNV-1" source="Sd-maIk0d4MH4gODgqWR-85" target="Sd-maIk0d4MH4gODgqWR-87">
          <mxGeometry relative="1" as="geometry" />
        </mxCell>
        <mxCell id="Sd-maIk0d4MH4gODgqWR-85" value="Enter Debit Amount" style="shape=parallelogram;perimeter=parallelogramPerimeter;whiteSpace=wrap;html=1;fixedSize=1;strokeWidth=2;" vertex="1" parent="WIyWlLk6GJQsqaUBKTNV-1">
          <mxGeometry x="111" y="279" width="169" height="42.5" as="geometry" />
        </mxCell>
        <mxCell id="Sd-maIk0d4MH4gODgqWR-90" value="" style="edgeStyle=orthogonalEdgeStyle;rounded=0;orthogonalLoop=1;jettySize=auto;html=1;" edge="1" parent="WIyWlLk6GJQsqaUBKTNV-1" source="Sd-maIk0d4MH4gODgqWR-87" target="Sd-maIk0d4MH4gODgqWR-89">
          <mxGeometry relative="1" as="geometry" />
        </mxCell>
        <mxCell id="Sd-maIk0d4MH4gODgqWR-87" value="Enter Deduction Account Code" style="shape=parallelogram;perimeter=parallelogramPerimeter;whiteSpace=wrap;html=1;fixedSize=1;strokeWidth=2;" vertex="1" parent="WIyWlLk6GJQsqaUBKTNV-1">
          <mxGeometry x="95.5" y="360" width="200" height="42.5" as="geometry" />
        </mxCell>
        <mxCell id="Sd-maIk0d4MH4gODgqWR-92" value="" style="edgeStyle=orthogonalEdgeStyle;rounded=0;orthogonalLoop=1;jettySize=auto;html=1;" edge="1" parent="WIyWlLk6GJQsqaUBKTNV-1" source="Sd-maIk0d4MH4gODgqWR-89" target="Sd-maIk0d4MH4gODgqWR-91">
          <mxGeometry relative="1" as="geometry" />
        </mxCell>
        <mxCell id="Sd-maIk0d4MH4gODgqWR-89" value="Enter Deduction Amount " style="shape=parallelogram;perimeter=parallelogramPerimeter;whiteSpace=wrap;html=1;fixedSize=1;strokeWidth=2;" vertex="1" parent="WIyWlLk6GJQsqaUBKTNV-1">
          <mxGeometry x="340" y="360" width="200" height="42.5" as="geometry" />
        </mxCell>
        <mxCell id="Sd-maIk0d4MH4gODgqWR-94" value="" style="edgeStyle=orthogonalEdgeStyle;rounded=0;orthogonalLoop=1;jettySize=auto;html=1;" edge="1" parent="WIyWlLk6GJQsqaUBKTNV-1" source="Sd-maIk0d4MH4gODgqWR-91" target="Sd-maIk0d4MH4gODgqWR-93">
          <mxGeometry relative="1" as="geometry" />
        </mxCell>
        <mxCell id="Sd-maIk0d4MH4gODgqWR-91" value="Enter Net Payable Code" style="shape=parallelogram;perimeter=parallelogramPerimeter;whiteSpace=wrap;html=1;fixedSize=1;strokeWidth=2;" vertex="1" parent="WIyWlLk6GJQsqaUBKTNV-1">
          <mxGeometry x="570" y="360" width="200" height="42.5" as="geometry" />
        </mxCell>
        <mxCell id="Sd-maIk0d4MH4gODgqWR-96" value="" style="edgeStyle=orthogonalEdgeStyle;rounded=0;orthogonalLoop=1;jettySize=auto;html=1;" edge="1" parent="WIyWlLk6GJQsqaUBKTNV-1" source="Sd-maIk0d4MH4gODgqWR-93" target="Sd-maIk0d4MH4gODgqWR-95">
          <mxGeometry relative="1" as="geometry" />
        </mxCell>
        <mxCell id="Sd-maIk0d4MH4gODgqWR-93" value="Enter Credit Amount " style="shape=parallelogram;perimeter=parallelogramPerimeter;whiteSpace=wrap;html=1;fixedSize=1;strokeWidth=2;" vertex="1" parent="WIyWlLk6GJQsqaUBKTNV-1">
          <mxGeometry x="570" y="440" width="200" height="42.5" as="geometry" />
        </mxCell>
        <mxCell id="Sd-maIk0d4MH4gODgqWR-98" value="" style="edgeStyle=orthogonalEdgeStyle;rounded=0;orthogonalLoop=1;jettySize=auto;html=1;" edge="1" parent="WIyWlLk6GJQsqaUBKTNV-1" source="Sd-maIk0d4MH4gODgqWR-95" target="Sd-maIk0d4MH4gODgqWR-97">
          <mxGeometry relative="1" as="geometry" />
        </mxCell>
        <mxCell id="Sd-maIk0d4MH4gODgqWR-95" value="Enter Credit Amount " style="shape=parallelogram;perimeter=parallelogramPerimeter;whiteSpace=wrap;html=1;fixedSize=1;strokeWidth=2;" vertex="1" parent="WIyWlLk6GJQsqaUBKTNV-1">
          <mxGeometry x="314" y="440" width="200" height="42.5" as="geometry" />
        </mxCell>
        <mxCell id="Sd-maIk0d4MH4gODgqWR-97" value="Upload Documents  " style="shape=parallelogram;perimeter=parallelogramPerimeter;whiteSpace=wrap;html=1;fixedSize=1;strokeWidth=2;" vertex="1" parent="WIyWlLk6GJQsqaUBKTNV-1">
          <mxGeometry x="80" y="440" width="200" height="42.5" as="geometry" />
        </mxCell>
        <mxCell id="Sd-maIk0d4MH4gODgqWR-117" value="" style="edgeStyle=orthogonalEdgeStyle;rounded=0;orthogonalLoop=1;jettySize=auto;html=1;" edge="1" parent="WIyWlLk6GJQsqaUBKTNV-1" source="Sd-maIk0d4MH4gODgqWR-107" target="Sd-maIk0d4MH4gODgqWR-116">
          <mxGeometry relative="1" as="geometry" />
        </mxCell>
        <mxCell id="Sd-maIk0d4MH4gODgqWR-107" value="Select Approver Department" style="shape=parallelogram;perimeter=parallelogramPerimeter;whiteSpace=wrap;html=1;fixedSize=1;strokeWidth=2;" vertex="1" parent="WIyWlLk6GJQsqaUBKTNV-1">
          <mxGeometry x="95" y="810" width="189.5" height="50" as="geometry" />
        </mxCell>
        <mxCell id="Sd-maIk0d4MH4gODgqWR-122" value="" style="edgeStyle=orthogonalEdgeStyle;rounded=0;orthogonalLoop=1;jettySize=auto;html=1;" edge="1" parent="WIyWlLk6GJQsqaUBKTNV-1" source="Sd-maIk0d4MH4gODgqWR-114" target="Sd-maIk0d4MH4gODgqWR-121">
          <mxGeometry relative="1" as="geometry" />
        </mxCell>
        <mxCell id="Sd-maIk0d4MH4gODgqWR-114" value="Add Comments" style="shape=parallelogram;perimeter=parallelogramPerimeter;whiteSpace=wrap;html=1;fixedSize=1;strokeWidth=2;" vertex="1" parent="WIyWlLk6GJQsqaUBKTNV-1">
          <mxGeometry x="303.5" y="970" width="189.5" height="50" as="geometry" />
        </mxCell>
        <mxCell id="Sd-maIk0d4MH4gODgqWR-119" value="" style="edgeStyle=orthogonalEdgeStyle;rounded=0;orthogonalLoop=1;jettySize=auto;html=1;" edge="1" parent="WIyWlLk6GJQsqaUBKTNV-1" source="Sd-maIk0d4MH4gODgqWR-116" target="Sd-maIk0d4MH4gODgqWR-118">
          <mxGeometry relative="1" as="geometry" />
        </mxCell>
        <mxCell id="Sd-maIk0d4MH4gODgqWR-116" value="Select Approver Designation" style="shape=parallelogram;perimeter=parallelogramPerimeter;whiteSpace=wrap;html=1;fixedSize=1;strokeWidth=2;" vertex="1" parent="WIyWlLk6GJQsqaUBKTNV-1">
          <mxGeometry x="95" y="890" width="189.5" height="50" as="geometry" />
        </mxCell>
        <mxCell id="Sd-maIk0d4MH4gODgqWR-120" value="" style="edgeStyle=orthogonalEdgeStyle;rounded=0;orthogonalLoop=1;jettySize=auto;html=1;" edge="1" parent="WIyWlLk6GJQsqaUBKTNV-1" source="Sd-maIk0d4MH4gODgqWR-118" target="Sd-maIk0d4MH4gODgqWR-114">
          <mxGeometry relative="1" as="geometry" />
        </mxCell>
        <mxCell id="Sd-maIk0d4MH4gODgqWR-118" value="Select Approver Name" style="shape=parallelogram;perimeter=parallelogramPerimeter;whiteSpace=wrap;html=1;fixedSize=1;strokeWidth=2;" vertex="1" parent="WIyWlLk6GJQsqaUBKTNV-1">
          <mxGeometry x="95.5" y="970" width="189.5" height="50" as="geometry" />
        </mxCell>
        <mxCell id="Sd-maIk0d4MH4gODgqWR-132" value="" style="edgeStyle=orthogonalEdgeStyle;rounded=0;orthogonalLoop=1;jettySize=auto;html=1;entryX=0.5;entryY=0;entryDx=0;entryDy=0;" edge="1" parent="WIyWlLk6GJQsqaUBKTNV-1" source="Sd-maIk0d4MH4gODgqWR-121" target="Sd-maIk0d4MH4gODgqWR-128">
          <mxGeometry relative="1" as="geometry">
            <mxPoint x="740" y="1010" as="targetPoint" />
          </mxGeometry>
        </mxCell>
        <mxCell id="Sd-maIk0d4MH4gODgqWR-121" value="Forward" style="whiteSpace=wrap;html=1;strokeWidth=2;" vertex="1" parent="WIyWlLk6GJQsqaUBKTNV-1">
          <mxGeometry x="520" y="972.5" width="149" height="45" as="geometry" />
        </mxCell>
        <mxCell id="Sd-maIk0d4MH4gODgqWR-134" value="" style="edgeStyle=orthogonalEdgeStyle;rounded=0;orthogonalLoop=1;jettySize=auto;html=1;entryX=0.5;entryY=0;entryDx=0;entryDy=0;" edge="1" parent="WIyWlLk6GJQsqaUBKTNV-1" source="Sd-maIk0d4MH4gODgqWR-123" target="Sd-maIk0d4MH4gODgqWR-128">
          <mxGeometry relative="1" as="geometry">
            <mxPoint x="815.5" y="628" as="targetPoint" />
          </mxGeometry>
        </mxCell>
        <mxCell id="Sd-maIk0d4MH4gODgqWR-123" value="Click Create and Approve" style="whiteSpace=wrap;html=1;strokeWidth=2;" vertex="1" parent="WIyWlLk6GJQsqaUBKTNV-1">
          <mxGeometry x="540" y="604" width="195.5" height="48" as="geometry" />
        </mxCell>
        <mxCell id="Sd-maIk0d4MH4gODgqWR-128" value="End" style="rounded=1;whiteSpace=wrap;arcSize=50;strokeWidth=2;" vertex="1" parent="WIyWlLk6GJQsqaUBKTNV-1">
          <mxGeometry x="700" y="1070" width="51" height="39" as="geometry" />
        </mxCell>
      </root>
    </mxGraphModel>
  </diagram>
</mxfile>
